<svg xmlns="http://www.w3.org/2000/svg" xmlns:xlink="http://www.w3.org/1999/xlink" width="500" zoomAndPan="magnify" viewBox="0 0 375 374.999991" height="500" preserveAspectRatio="xMidYMid meet" version="1.0"><defs><clipPath id="17965cf71d"><path d="M 132.363281 143.273438 L 254.535156 143.273438 L 254.535156 262.5 L 132.363281 262.5 Z M 132.363281 143.273438 " clip-rule="nonzero"/></clipPath><clipPath id="997279fdfe"><path d="M 174 157 L 252 157 L 252 240.117188 L 174 240.117188 Z M 174 157 " clip-rule="nonzero"/></clipPath><clipPath id="48f6d829e3"><path d="M 171.039062 160 L 228 160 L 228 237 L 171.039062 237 Z M 171.039062 160 " clip-rule="nonzero"/></clipPath><clipPath id="dc8c22cec3"><path d="M 262 214.003906 L 287.703125 214.003906 L 287.703125 240.253906 L 262 240.253906 Z M 262 214.003906 " clip-rule="nonzero"/></clipPath><clipPath id="f55571f602"><path d="M 249.453125 219 L 279 219 L 279 240.253906 L 249.453125 240.253906 Z M 249.453125 219 " clip-rule="nonzero"/></clipPath></defs><rect x="-37.5" width="450" fill="#ffffff" y="-37.499999" height="449.999989" fill-opacity="1"/><rect x="-37.5" width="450" fill="#ffffff" y="-37.499999" height="449.999989" fill-opacity="1"/><path fill="#80cc28" d="M 163.675781 148.835938 C 143.300781 173.003906 145.410156 209.15625 168.898438 230.765625 C 180.304688 241.253906 194.707031 246.433594 209.074219 246.4375 C 197.265625 244.945312 185.792969 239.898438 176.367188 231.230469 C 152.234375 209.03125 150.664062 171.472656 172.863281 147.339844 C 180.464844 139.078125 189.863281 133.46875 199.90625 130.542969 C 201.617188 130.125 203.382812 129.738281 205.207031 129.398438 C 205.207031 129.398438 166.78125 142.621094 167.125 180.894531 C 167.125 180.894531 168.648438 169.453125 177.152344 157.769531 C 180.601562 159.027344 186.230469 159.988281 193.449219 157.421875 C 199.480469 155.28125 205.738281 148.644531 214.441406 141.527344 C 231.054688 127.933594 240.820312 130.179688 240.820312 130.179688 C 240.820312 130.179688 231.457031 121.597656 217.835938 117.050781 C 205.871094 113.050781 190.34375 112.496094 178.789062 119.121094 C 159.671875 130.085938 163.355469 149.132812 163.675781 148.835938 " fill-opacity="1" fill-rule="nonzero"/><g clip-path="url(#17965cf71d)"><path fill="#1c6434" d="M 207.34375 256.039062 C 169.277344 256.039062 138.417969 225.179688 138.417969 187.113281 C 138.417969 170.492188 144.300781 155.246094 154.097656 143.34375 C 140.722656 155.914062 132.363281 173.765625 132.363281 193.574219 C 132.363281 231.640625 163.222656 262.5 201.289062 262.5 C 222.734375 262.5 241.894531 252.703125 254.535156 237.34375 C 242.203125 248.933594 225.605469 256.039062 207.34375 256.039062 " fill-opacity="1" fill-rule="nonzero"/></g><g clip-path="url(#997279fdfe)"><path fill="#5eb23f" d="M 213.546875 240.117188 C 246.71875 225.621094 222.441406 203.589844 240.542969 176.8125 C 242.144531 189.648438 245.359375 203.578125 238.242188 217.15625 C 245.519531 205.675781 249.046875 181.546875 238.726562 170.902344 C 236.035156 168.128906 232.898438 165.679688 229.371094 163.675781 C 210.507812 152.992188 186.808594 158.667969 174.738281 176.203125 C 186.550781 157.78125 210.855469 151.617188 230.125 162.546875 C 234.054688 164.765625 237.472656 167.539062 240.355469 170.699219 C 241.253906 171.683594 242.101562 172.707031 242.882812 173.769531 C 252.546875 186.582031 254.269531 204.398438 245.855469 219.242188 C 238.886719 231.53125 226.613281 238.90625 213.546875 240.117188 " fill-opacity="1" fill-rule="evenodd"/></g><g clip-path="url(#48f6d829e3)"><path fill="#003c25" d="M 191.332031 166.269531 C 191.210938 166.863281 191.398438 167.457031 191.667969 167.820312 C 191.910156 167.738281 192.230469 167.480469 192.417969 167.308594 C 192.40625 166.917969 192.246094 166.890625 192.082031 166.582031 C 191.855469 166.164062 191.828125 166.246094 191.332031 166.269531 Z M 189.835938 167.496094 C 190.160156 167.65625 190.480469 167.65625 190.65625 167.308594 C 190.914062 166.417969 189.945312 166.164062 189.527344 166.753906 C 189.285156 167.117188 189.527344 167.335938 189.835938 167.496094 Z M 189.472656 172.785156 C 189.554688 172.460938 189.648438 172.71875 189.582031 171.976562 C 189.125 171.828125 188.773438 171.898438 188.449219 172.246094 C 187.953125 172.785156 188.355469 172.878906 188.195312 173.335938 C 187.789062 173.390625 187.84375 173.242188 187.402344 173.390625 C 187.089844 174.210938 187.789062 174.144531 188.140625 174.441406 C 188.273438 174.546875 188.328125 174.65625 188.449219 174.75 C 189.917969 174.535156 189.390625 173.109375 189.472656 172.785156 Z M 192.136719 171.425781 C 191.71875 171.304688 191.25 171.019531 190.480469 171.453125 C 190.132812 171.628906 190.09375 172.570312 190.09375 172.960938 L 190.117188 173.402344 L 190.820312 173.445312 C 191.074219 172.394531 190.964844 173 191.613281 172.515625 C 191.839844 172.328125 191.816406 172.179688 191.949219 171.976562 C 192.164062 171.652344 192.152344 171.855469 192.136719 171.425781 Z M 191.839844 169.273438 C 191.839844 170 191.816406 170.105469 192.125 170.605469 L 195.527344 170.160156 C 195.960938 170.121094 196.902344 170.46875 196.902344 169.042969 C 196.902344 168.652344 196.523438 168.4375 196.054688 168.4375 C 195.257812 168.4375 194.359375 169.449219 193.496094 169.164062 C 193.039062 169.015625 193.511719 169.085938 192.835938 169.003906 L 192.785156 168.988281 L 192.6875 168.960938 C 192.878906 168.546875 193.039062 169.097656 193.039062 168.492188 C 193.039062 168.101562 192.582031 168.085938 192.21875 168.074219 C 191.816406 168.0625 191.464844 168.007812 191.128906 168.046875 C 190.710938 168.113281 190.820312 168.546875 191.074219 168.773438 C 191.304688 168.976562 191.679688 168.976562 191.839844 169.273438 Z M 187.980469 169.394531 C 187.84375 169.957031 187.9375 170.214844 188.664062 170.710938 C 188.828125 170.832031 189.109375 170.875 189.367188 170.808594 C 189.945312 170.65625 189.890625 170.347656 189.902344 170.242188 L 190.644531 170.78125 C 191.355469 170.578125 191.652344 170.320312 191.277344 169.664062 L 190.628906 169.609375 C 190.386719 169.164062 190.320312 168.503906 189.582031 168.976562 C 189.054688 169.3125 188.773438 169.394531 187.980469 169.394531 Z M 182.796875 171.777344 C 183 172.554688 184.425781 172.890625 185.195312 172.515625 C 185.757812 172.246094 185.625 171.910156 186.164062 171.75 C 186.605469 171.628906 186.390625 171.667969 186.699219 171.4375 C 186.875 171.304688 187.171875 171.238281 187.320312 171.117188 C 187.304688 170.539062 187.226562 170.589844 186.847656 170.375 C 186.929688 170.160156 186.917969 170.242188 186.863281 169.851562 C 185.878906 169.8125 186.351562 170.335938 185.972656 171.019531 L 185.085938 170.523438 C 184.710938 170.226562 184.628906 170.121094 184.15625 170.46875 C 183.726562 170.792969 182.972656 171.316406 182.796875 171.777344 Z M 200.507812 213.332031 C 199.941406 213.011719 198.289062 212.769531 198.058594 214.222656 C 198.449219 214.289062 198.433594 214.167969 198.8125 214.328125 C 199.5 214.597656 200.425781 214.316406 200.832031 214.019531 C 200.832031 213.75 200.789062 213.496094 200.507812 213.332031 Z M 197.925781 212.753906 C 197.613281 212.648438 197.425781 212.457031 197.089844 212.285156 C 196.792969 212.136719 196.445312 212 196.175781 211.867188 C 193.738281 210.707031 193.914062 211.339844 193.039062 211.355469 L 193.039062 212.082031 C 194.289062 211.988281 194.519531 211.945312 195.90625 212.6875 C 196.699219 213.117188 196.375 213.210938 196.875 213.253906 L 197.050781 213.265625 C 197.144531 213.292969 197.855469 213.980469 197.925781 212.753906 Z M 222.65625 180.363281 C 223.007812 180.28125 223.089844 180.171875 223.371094 180.5625 C 223.316406 180.792969 223.464844 180.671875 223.074219 180.765625 C 223.316406 182.058594 223.382812 181.0625 223.4375 181.855469 C 223.894531 181.949219 223.761719 181.84375 223.894531 182.324219 C 225.027344 182.488281 224.542969 182.714844 225.121094 182.714844 C 225.496094 182.714844 226.167969 182.40625 226.414062 182.246094 C 226.75 182.03125 227.125 181.558594 227.40625 181.453125 C 227.40625 180.765625 227.285156 180.414062 226.910156 180.023438 C 225.929688 179.015625 226.144531 179.769531 225.671875 179.769531 L 223.949219 179.769531 C 223.546875 179.769531 224.015625 179.472656 223.140625 179.367188 C 222.859375 179.742188 222.738281 179.714844 222.65625 180.363281 Z M 207.707031 171.410156 C 207.855469 172.289062 207.046875 172.367188 207.652344 173.109375 C 208.230469 173.066406 208.003906 172.785156 208.675781 172.71875 C 208.757812 172.851562 208.785156 172.851562 208.851562 173 C 208.945312 173.230469 208.835938 173.175781 209 173.335938 C 209.226562 173.578125 209.605469 173.308594 209.402344 173.984375 C 208.878906 173.929688 209.09375 173.621094 208.59375 173.621094 C 207.355469 173.621094 207.816406 175.609375 208.433594 175.609375 C 208.851562 175.609375 209.054688 175.464844 209.375 175.328125 C 209.375 174.992188 209.347656 174.992188 209.214844 174.761719 L 209.617188 174.761719 C 210.074219 176.175781 208.796875 175.867188 208.554688 176.539062 C 208.5 176.699219 208.351562 176.820312 208.351562 177.035156 C 208.378906 180.484375 208.488281 178.421875 208.796875 179.742188 C 208.863281 180.039062 208.933594 180.550781 208.957031 180.914062 C 209.390625 180.886719 209.511719 180.710938 209.875 180.832031 C 209.859375 181.0625 209.617188 181.140625 209.617188 181.574219 C 209.617188 182.488281 209.710938 182.648438 210.289062 183.320312 C 210.464844 183.523438 210.65625 183.617188 210.734375 183.820312 C 210.9375 184.398438 210.585938 184.386719 211.394531 184.574219 C 212.808594 184.910156 212.78125 186.082031 213.898438 185.234375 C 213.910156 184.410156 214.179688 184.183594 214.207031 183.539062 C 214.234375 182.742188 214.367188 182.460938 214.867188 182.136719 C 214.867188 181.625 214.824219 181.183594 214.960938 180.738281 C 215.160156 180.121094 215.269531 180.496094 215.445312 179.742188 C 216.277344 179.582031 216.804688 179.609375 217.4375 179.136719 C 218.21875 178.542969 218.539062 177.75 218.824219 177.535156 C 218.835938 177.523438 218.984375 177.425781 219.011719 177.414062 C 219.414062 177.171875 219.964844 177.132812 220.503906 177.011719 C 222.578125 176.59375 221.367188 176.148438 222.617188 176.148438 C 222.753906 175.894531 222.914062 175.746094 223.046875 175.503906 C 223.210938 175.207031 223.167969 174.976562 223.425781 174.789062 L 223.183594 174.050781 C 223.089844 173.511719 223.035156 173.886719 222.820312 173.496094 C 222.738281 173.1875 222.941406 172.515625 222.914062 172.339844 C 222.847656 171.964844 222.699219 172.378906 222.699219 171.9375 C 222.699219 171.613281 222.804688 171.695312 222.859375 171.640625 C 222.980469 171.507812 223.019531 171.492188 223.007812 171.507812 C 223.074219 171.425781 222.992188 171.519531 223.074219 171.386719 C 223.183594 171.210938 223.117188 171.265625 223.261719 171.089844 C 224.042969 170.066406 223.304688 170.242188 223.183594 169.59375 C 223.558594 169.636719 223.480469 169.890625 223.882812 170.039062 C 224.152344 169.769531 224.234375 169.703125 224.191406 169.191406 C 223.035156 168.921875 223.679688 169.015625 222.992188 168.425781 C 222.953125 168.398438 221.59375 167.46875 222.457031 167.46875 C 222.804688 167.46875 222.925781 167.699219 223.25 167.46875 C 223.558594 167.078125 222.738281 166.6875 222.589844 166.566406 C 222.292969 166.351562 221.863281 166.125 221.863281 165.664062 C 221.863281 164.386719 222.925781 164.023438 222.941406 163.042969 C 219.132812 161.84375 220.476562 162.824219 219.765625 162.878906 L 219.792969 162.140625 C 218.6875 161.761719 219.265625 161.980469 218.40625 162.339844 C 218.21875 162.097656 218.378906 162.179688 218.230469 161.898438 C 218.125 161.683594 218.109375 161.761719 218 161.589844 C 217.90625 161.453125 217.882812 161.304688 217.8125 161.222656 C 217.691406 161.0625 217.597656 161.089844 217.515625 160.957031 L 223.238281 162.679688 C 220.222656 161.507812 217.046875 160.699219 213.734375 160.308594 C 213.75 160.324219 213.761719 160.324219 213.761719 160.324219 C 213.414062 161.0625 212.6875 160.472656 212.351562 160.472656 C 211.730469 160.472656 212.203125 160.644531 211.5 160.726562 C 210.238281 160.886719 208.984375 160.859375 207.734375 160.78125 C 207.0625 160.738281 206.65625 161.050781 205.957031 160.941406 C 205.472656 160.859375 205.082031 160.660156 204.53125 160.726562 C 203.050781 160.929688 201.785156 161.238281 200.332031 161.480469 C 198.90625 161.722656 197.949219 162.460938 196.429688 162.460938 C 196.148438 162.773438 196.363281 162.839844 195.8125 162.878906 C 195.421875 162.921875 195.21875 162.988281 195.097656 163.3125 C 195.285156 163.699219 195.421875 163.457031 195.570312 163.847656 C 194.871094 163.863281 195.21875 163.675781 194.800781 163.675781 L 194.167969 163.675781 C 193.996094 163.78125 192.957031 164.765625 192.796875 164.925781 C 192.5 165.246094 192.621094 165.4375 192.808594 165.855469 C 193.269531 166.835938 193.496094 166.566406 194.046875 166.339844 C 194.332031 166.660156 194.261719 166.539062 194.25 167.253906 C 194.007812 167.429688 193.683594 167.617188 193.46875 167.859375 C 193.484375 167.871094 193.550781 167.96875 193.578125 167.992188 C 194.074219 168.546875 195.933594 168.046875 196.28125 167.722656 C 196.6875 167.914062 196.644531 168.019531 197.199219 167.832031 C 198.488281 167.359375 197.761719 167.171875 198.246094 166.285156 C 198.542969 165.761719 198.582031 165.867188 199.027344 165.773438 C 199.523438 165.652344 199.78125 164.210938 200.9375 163.648438 C 201.652344 163.3125 201.894531 163.082031 202.511719 162.570312 C 202.984375 162.191406 202.929688 162.382812 202.945312 161.65625 C 203.332031 161.628906 203.671875 161.683594 204.15625 161.535156 C 204.464844 161.441406 204.933594 161.265625 205.296875 161.441406 C 205.285156 161.761719 205.324219 161.628906 204.8125 161.804688 C 204.207031 162.003906 203.765625 162.328125 203.171875 162.503906 L 203.1875 163.066406 C 203.480469 163.082031 203.65625 163.109375 203.804688 163.3125 C 203.65625 163.632812 203.601562 163.324219 203.347656 163.847656 C 202.214844 163.847656 202.109375 164.320312 201.234375 164.574219 C 200.882812 164.683594 200.640625 164.535156 200.640625 164.882812 C 200.640625 166.351562 202.027344 165.371094 203.171875 165.734375 C 202.863281 166.554688 201.785156 165.933594 201.316406 166.054688 C 201.125 166.109375 201.019531 166.230469 200.882812 166.324219 C 200.925781 167.09375 201.113281 166.742188 201.476562 166.917969 C 201.691406 167.011719 201.757812 167.414062 201.878906 167.628906 C 202.890625 167.496094 203.886719 167.347656 204.90625 167.347656 C 205.566406 167.347656 206.5625 168.449219 206.792969 168.949219 C 206.925781 169.246094 206.847656 169.070312 207.007812 169.285156 C 207.183594 169.539062 207.667969 171.195312 207.707031 171.410156 Z M 196.847656 175.085938 C 197.238281 175.382812 197.441406 175.960938 197.441406 176.566406 C 197.828125 176.566406 198.449219 176.605469 198.449219 176.984375 C 198.179688 177.226562 197.574219 177.011719 197.15625 177.171875 C 196.847656 177.375 196.710938 178.421875 197.601562 178.355469 C 198.410156 178.289062 198.449219 177.578125 199 177.617188 C 199.082031 179.03125 198.652344 178.355469 198.273438 179.5 C 198.207031 179.714844 198.246094 179.851562 198.207031 180.121094 C 196.929688 180.1875 196.429688 180.242188 196.429688 181.328125 C 197.601562 181.707031 197.222656 181.4375 198.328125 181.15625 C 199.699219 182.21875 198.609375 182.367188 200.898438 183.390625 C 201.410156 183.617188 201.597656 183.804688 202.070312 183.523438 C 201.933594 182.554688 201.003906 182.570312 200.953125 182.085938 C 201.652344 182.136719 202.109375 182.621094 202.808594 182.785156 C 203.292969 181.398438 202.902344 181.371094 202.445312 180.832031 C 201.730469 179.996094 201.570312 180.09375 201.609375 178.960938 C 202.605469 179.121094 202.269531 180.402344 203.347656 180.375 C 204.128906 180.363281 204.464844 178.53125 204.4375 178.476562 C 204.234375 178.007812 204.03125 178.277344 203.695312 178.007812 L 203.039062 177.414062 C 201.785156 176.363281 201.851562 177.132812 201.839844 176.148438 C 202.054688 176.136719 202.09375 176.121094 202.203125 176.054688 C 202.203125 176 201.988281 174.492188 201.878906 174.667969 C 201.867188 174.695312 201.8125 174.640625 201.773438 174.613281 C 201.355469 174.386719 201.558594 174.480469 201.289062 174.222656 C 200.925781 173.902344 200.925781 174.199219 200.5625 173.859375 C 199.902344 173.242188 200.25 172.972656 199.175781 173.1875 C 199.054688 173.011719 198.933594 172.917969 198.773438 172.742188 C 198.554688 172.488281 198.3125 171.949219 198.152344 171.628906 C 197.949219 171.222656 198.019531 171.585938 198.03125 171.046875 C 196.886719 170.765625 197.910156 170.847656 196.054688 170.847656 C 195.71875 170.847656 195.945312 170.996094 195.339844 171.019531 C 195.179688 171.035156 195.152344 171.007812 195.003906 171.0625 C 194.800781 171.128906 195.058594 171.101562 194.695312 171.25 C 193.941406 170.292969 192.59375 171.992188 192.246094 172.757812 C 192.136719 172.960938 191.949219 173.621094 191.855469 173.78125 C 192.3125 174.144531 192.367188 173.886719 192.742188 174.425781 C 192.460938 174.898438 192.472656 174.601562 192.273438 175.339844 C 193.320312 175.582031 194.84375 175.597656 195.972656 175.464844 C 196.660156 175.367188 196.445312 175.246094 196.847656 175.085938 Z M 190.347656 188.773438 C 191.113281 189.042969 191.800781 189.429688 192.472656 189.863281 C 193.105469 190.265625 193.632812 189.902344 194.046875 190.386719 C 194.277344 190.914062 193.671875 192.367188 194.519531 192.824219 L 195.191406 193.214844 C 196.148438 192.742188 195.339844 192.03125 195.339844 191.289062 L 195.460938 190.550781 C 195.597656 190.117188 195.40625 190.359375 195.824219 190.199219 C 196.335938 190.023438 196.175781 189.957031 196.417969 189.472656 C 196.671875 188.976562 196.617188 189.066406 196.496094 188.4375 C 196.296875 187.304688 195.597656 187.0625 195.972656 186.59375 C 196.335938 186.136719 196.308594 186.390625 196.296875 185.570312 C 196.296875 185.125 196.308594 184.683594 196.296875 184.238281 C 196.296875 183.148438 195.917969 183.363281 198.71875 183.390625 C 198.90625 183.671875 199.429688 184.238281 199.660156 184.398438 C 199.984375 184.601562 200.078125 184.464844 200.238281 184.84375 C 200.710938 185.917969 200.089844 186.5 200.050781 186.902344 C 200.332031 186.902344 200.546875 186.808594 200.722656 186.863281 C 201.222656 186.996094 201.195312 187.46875 201.867188 186.753906 C 202.457031 186.136719 202.027344 185.90625 202.378906 185.476562 C 202.847656 184.898438 203.253906 185.878906 203.402344 186.214844 C 203.628906 186.6875 203.898438 187.078125 204.085938 187.574219 C 204.113281 187.640625 204.140625 187.710938 204.167969 187.804688 C 204.234375 187.964844 204.277344 187.976562 204.300781 188.074219 C 204.449219 188.585938 203.738281 188.585938 204.640625 189.285156 C 204.921875 189.5 205.070312 189.753906 205.296875 190.023438 L 206.28125 190.078125 L 206.617188 190.832031 C 206.644531 190.914062 206.683594 191.046875 206.738281 191.113281 C 207.007812 191.464844 206.710938 191.128906 206.953125 191.277344 C 207.128906 191.382812 207.0625 191.300781 207.167969 191.449219 C 207.574219 191.960938 207.398438 192.835938 207.398438 193.5625 C 207.398438 194.019531 207.101562 193.792969 207.167969 194.519531 C 207.613281 194.679688 207.574219 194.652344 208.136719 194.667969 C 208.300781 195.058594 208.285156 194.800781 208.367188 195.367188 C 208.421875 195.757812 208.515625 195.769531 208.730469 196.027344 C 209.078125 196.445312 209.027344 197.101562 208.351562 196.953125 C 207.304688 196.726562 207.546875 196.160156 205.285156 196.160156 C 205.390625 195.769531 205.609375 195.554688 205.753906 195.191406 C 205.945312 194.734375 206.386719 193.953125 206.347656 193.535156 C 205.59375 193.375 205.554688 193.75 205.488281 194.0625 C 205.269531 194.089844 203.859375 194.261719 203.738281 194.34375 C 203.832031 194.464844 203.953125 194.480469 204.140625 194.480469 L 204.128906 195.207031 C 203.011719 195.207031 203.332031 195.191406 202.847656 194.601562 C 202.511719 194.183594 201.851562 194.425781 201.410156 194.613281 C 200.695312 194.894531 200.683594 194.867188 200.332031 195.5 C 200.035156 196.027344 199.539062 196.082031 199.5 196.660156 C 200.171875 196.589844 200.078125 195.945312 200.882812 195.421875 C 201.207031 195.207031 201.988281 194.707031 202.417969 194.867188 C 203.265625 195.179688 202.054688 195.757812 202.917969 196.496094 C 203.105469 196.644531 203.359375 196.6875 203.5625 196.792969 C 204.167969 197.0625 204.53125 196.96875 205.164062 196.832031 C 205.164062 197.613281 205.191406 197.480469 204.773438 197.898438 C 204.449219 198.195312 204.300781 198.261719 203.804688 198.339844 C 203.359375 198.410156 203.292969 198.648438 202.945312 198.894531 C 202.511719 199.1875 202.511719 199.175781 201.878906 199.175781 C 201.746094 198.421875 202.136719 198.796875 202.136719 198.234375 C 201.328125 198.179688 201.757812 198.433594 201.101562 198.609375 C 200.738281 198.703125 200.5625 198.730469 200.292969 198.972656 L 199.6875 199.539062 C 199.539062 199.78125 199.671875 200.210938 199.671875 200.5625 C 199.230469 200.710938 198.8125 200.859375 198.449219 201.140625 C 197.925781 201.53125 198.003906 201.664062 197.722656 202.296875 C 197.535156 202.726562 197.34375 203.089844 197.183594 203.644531 C 196.753906 205.109375 196.886719 204.625 196.121094 205.390625 C 195.691406 205.824219 194.910156 206.171875 194.601562 206.699219 C 193.96875 207.800781 195.234375 208.230469 195.21875 210.023438 L 195.207031 210.332031 C 194.976562 210.332031 194.734375 210.332031 194.558594 210.265625 C 194.25 210.144531 193.914062 209.269531 193.792969 208.917969 C 193.308594 207.613281 193.308594 207.332031 190.765625 207.640625 L 190.65625 208.097656 C 189.742188 208.230469 189.730469 207.734375 188.921875 207.734375 C 188.476562 207.734375 187.496094 208.542969 187.496094 208.933594 C 187.496094 211.582031 187.265625 210.871094 188.03125 212.324219 C 188.234375 212.699219 188.394531 213.132812 188.839844 213.238281 C 189.824219 213.46875 190.550781 212.875 190.699219 211.894531 C 191.585938 211.894531 191.425781 211.796875 192.03125 212.160156 C 191.988281 212.914062 191.773438 213.023438 191.773438 214.449219 C 192.257812 214.746094 193.050781 214.800781 193.617188 215.042969 C 194.289062 215.339844 194.074219 216.265625 194.074219 217.15625 C 194.183594 217.34375 194.4375 217.570312 194.585938 217.679688 C 194.921875 217.960938 194.949219 217.867188 195.367188 217.828125 C 196.671875 217.679688 196.121094 218.015625 196.996094 218.230469 C 197.34375 218.015625 197.480469 217.597656 197.992188 217.371094 C 198.207031 217.289062 198.476562 217.222656 198.703125 217.140625 C 199.511719 216.84375 198.355469 216.132812 200.761719 217.304688 L 201.421875 217.652344 C 202.175781 218.003906 203.523438 217.53125 204.007812 217.828125 C 204.316406 218.015625 204.101562 218.070312 204.34375 218.273438 C 204.53125 218.40625 204.988281 218.472656 205.40625 218.785156 C 205.714844 219.011719 206.5625 219.78125 206.792969 219.832031 C 207.910156 220.101562 209.121094 219.644531 209.953125 221.355469 C 210.585938 222.6875 209.699219 222.296875 211.234375 222.59375 C 211.554688 222.644531 211.746094 222.726562 212.082031 222.832031 C 213.359375 223.222656 213.144531 223.480469 214.070312 223.347656 C 214.796875 223.238281 216.601562 224.207031 217.273438 224.449219 C 217.273438 226.023438 217.113281 225.78125 216.199219 226.644531 C 215.863281 226.953125 215.484375 227.128906 215.335938 227.4375 C 215.242188 227.585938 215.109375 228.433594 215 228.742188 C 214.757812 229.429688 214.246094 230.277344 213.640625 230.667969 C 213.316406 230.882812 212.472656 230.597656 211.097656 231.5 C 210.722656 231.757812 210.695312 232.417969 209.605469 233.292969 C 209.402344 233.453125 209.296875 233.464844 209.148438 233.628906 C 208.851562 233.949219 209.132812 233.882812 208.636719 233.992188 C 207.035156 234.300781 207.667969 234.851562 206.402344 235.015625 C 206.011719 235.066406 205.378906 235.214844 205.109375 235.378906 C 204.4375 235.792969 204.113281 236.386719 203.535156 236.710938 C 203.386719 236.789062 203.523438 236.710938 203.386719 236.804688 C 203.292969 236.871094 203.023438 237.085938 202.433594 236.789062 C 202.054688 236.613281 201.609375 236.75 201.179688 236.640625 C 201.140625 235.980469 200.871094 236.601562 201.140625 235.96875 C 201.289062 235.605469 201.289062 235.445312 201.058594 235.203125 C 200.453125 234.570312 200.46875 234.570312 200.816406 233.75 C 201.222656 232.78125 200.65625 232.792969 200.898438 232.121094 C 200.980469 231.933594 200.980469 232.09375 201.003906 231.742188 L 201.046875 229.46875 C 200.992188 229.1875 201.058594 229.441406 200.910156 229.238281 C 200.601562 228.835938 200.738281 228.824219 200.199219 228.609375 C 198.503906 227.90625 198.382812 227.570312 197.359375 226.199219 C 197.210938 225.996094 197.144531 225.847656 197.007812 225.6875 C 194.894531 223.023438 195.917969 224.382812 195.71875 222.753906 C 195.691406 222.457031 195.691406 222.160156 195.703125 221.851562 C 196.039062 221.554688 196.902344 220.707031 196.902344 220.210938 C 196.902344 219.726562 196.46875 218.714844 195.972656 218.714844 C 194.480469 218.714844 195.3125 219.105469 193.859375 218.257812 C 193.011719 217.746094 192.609375 216.414062 191.707031 216.089844 C 191.382812 215.984375 191.382812 215.984375 191.101562 215.835938 C 190.777344 215.660156 190.683594 215.753906 190.441406 215.648438 C 190.214844 215.539062 190.28125 215.417969 189.972656 215.257812 C 189.621094 215.054688 189.730469 215.164062 189.460938 214.894531 C 189.109375 214.53125 188.597656 214.636719 188.128906 214.597656 C 187.695312 214.558594 187.414062 214.246094 186.996094 214.074219 C 185.800781 213.5625 184.65625 212.886719 184.292969 211.597656 C 184.050781 210.722656 183.417969 210.210938 182.933594 209.511719 L 181.117188 206.617188 C 180.914062 206.347656 181.089844 206.496094 180.847656 206.429688 C 180.753906 206.710938 180.78125 206.753906 180.941406 206.953125 C 181.34375 207.480469 180.996094 207.480469 181.332031 207.75 L 181.695312 208.3125 C 181.816406 208.59375 181.949219 208.8125 182.140625 209.121094 C 182.421875 209.578125 183.363281 210.089844 182.648438 210.65625 C 181.9375 210.5625 181.386719 209.054688 181.007812 208.527344 C 180.726562 208.152344 180.550781 207.722656 180.347656 207.316406 C 179.972656 206.578125 179.796875 205.203125 179.125 204.691406 C 178.398438 204.167969 177.1875 201.585938 177.1875 200.9375 C 177.1875 199.957031 177.066406 198.972656 177.28125 197.976562 C 177.347656 197.628906 177.496094 197.683594 177.308594 197.277344 C 176.984375 196.605469 177.441406 196.523438 176.835938 195.785156 C 175.988281 194.746094 176.730469 194.410156 176.246094 193.484375 C 176.125 193.253906 176.070312 193.132812 175.855469 192.972656 C 175.476562 192.6875 176.417969 191.640625 175.019531 191.640625 C 175.019531 191.101562 174.683594 190.507812 174.617188 189.945312 C 174.574219 189.632812 174.671875 189.742188 174.507812 189.5 L 174.050781 188.839844 C 173.742188 188.558594 173.648438 188.707031 173.433594 188.878906 C 173.109375 189.148438 173.257812 188.960938 172.988281 189.082031 C 172.71875 189.191406 172.625 189.59375 172.53125 189.863281 C 172.25 190.710938 172.664062 191.398438 171.765625 191.625 C 171.496094 191.15625 171.804688 190.738281 171.535156 190.453125 C 171.375 191.328125 171.199219 190.859375 171.0625 191.464844 C 171.804688 187.601562 173.121094 183.941406 174.925781 180.5625 C 174.871094 180.699219 174.859375 180.804688 174.871094 180.871094 C 175.15625 181.046875 175.476562 180.710938 175.8125 180.605469 C 176.257812 180.46875 176.554688 180.507812 177.09375 180.484375 C 177.214844 180.28125 177.226562 180.160156 177.347656 179.957031 C 177.46875 179.757812 177.617188 179.632812 177.738281 179.484375 C 178.289062 178.867188 178.398438 179.042969 179.125 179.042969 C 179.554688 179.042969 180.214844 178.542969 180.617188 178.53125 C 180.925781 178.53125 181.546875 178.691406 181.871094 178.839844 C 182.113281 178.933594 182.070312 178.910156 182.21875 179.042969 L 182.152344 179.675781 C 182.3125 179.757812 182.917969 179.472656 183.59375 179.472656 C 183.914062 179.472656 183.847656 179.742188 184.089844 179.902344 C 184.199219 179.984375 184.210938 179.972656 184.359375 179.996094 C 184.371094 179.394531 184.492188 179.460938 184.144531 179.070312 C 183.835938 178.71875 184.007812 178.800781 183.511719 178.800781 C 183.1875 178.800781 183.296875 179.246094 182.757812 178.652344 C 182.3125 178.152344 182.382812 178.476562 181.882812 178.222656 C 181.789062 177.722656 182.058594 177.550781 182.449219 177.441406 C 183.027344 177.292969 182.90625 177.347656 183.257812 176.957031 C 182.785156 176.726562 182.71875 177.132812 182.058594 176.996094 C 181.871094 176.742188 182.058594 176.984375 181.964844 176.78125 L 181.613281 176.191406 C 181.414062 176.484375 181.292969 176.445312 181.023438 176.726562 C 180.78125 176.996094 180.6875 177.050781 180.214844 176.957031 C 180.175781 176 181.007812 174.5625 181.667969 173.847656 C 181.921875 173.578125 182.625 173.496094 183.039062 173.496094 C 183.429688 173.496094 184.035156 174.007812 184.238281 174.183594 C 184.453125 174.359375 184.5625 174.480469 184.75 174.628906 L 185.003906 174.84375 C 185.207031 175.058594 184.9375 174.992188 185.316406 175.058594 C 185.328125 175.046875 185.34375 175.003906 185.34375 175.019531 C 185.382812 175.167969 185.382812 174.925781 185.382812 174.898438 C 185.558594 174.371094 185.597656 173.835938 185.839844 173.324219 C 186.042969 172.933594 187.023438 172.113281 187.023438 173.039062 C 187.023438 173.390625 186.78125 173.632812 186.472656 173.714844 C 186.472656 174.199219 186.445312 174.761719 186.472656 175.234375 C 186.511719 176.230469 187.5625 175.558594 187.265625 176.59375 C 187.199219 176.847656 187.039062 176.902344 186.847656 177.035156 C 187.0625 178.140625 186.539062 177.84375 186.054688 178.007812 L 185.894531 178.074219 L 185.839844 178.101562 L 185.746094 178.152344 L 185.691406 178.179688 C 185.691406 178.179688 185.664062 178.195312 185.652344 178.207031 C 185.746094 178.410156 186.070312 178.570312 186.257812 178.757812 L 187.199219 178.746094 C 187.496094 178.4375 187.683594 178.300781 187.886719 177.804688 C 188.085938 177.304688 188.058594 177.050781 188.4375 176.648438 C 189.191406 176.648438 188.707031 176.847656 189.164062 176.996094 C 189.390625 176.996094 189.808594 177.023438 189.660156 176.6875 C 189.609375 176.554688 189.125 176.433594 189.125 176.09375 C 189.125 174.667969 189.40625 175.003906 189.660156 174.5625 C 189.917969 174.117188 189.632812 174.222656 190.414062 174.222656 C 190.738281 174.222656 190.941406 175.21875 190.941406 175.542969 C 190.941406 176.148438 190.738281 175.828125 191.074219 176.363281 C 191.289062 176.714844 191.222656 176.957031 191.355469 177.28125 C 191.652344 177.183594 191.789062 176.769531 191.867188 176.457031 C 191.921875 176.511719 191.949219 176.527344 191.960938 176.527344 C 191.960938 176.539062 191.960938 176.566406 192.003906 176.632812 C 192.03125 176.699219 192.042969 176.796875 192.070312 176.863281 C 192.3125 176.835938 192.246094 176.78125 192.433594 176.875 C 192.433594 177.304688 192.152344 177.886719 192.339844 178.316406 C 192.59375 178.394531 192.648438 178.34375 192.863281 178.234375 C 192.917969 177.953125 192.90625 177.683594 193.027344 177.441406 C 193.160156 177.144531 193.335938 177.105469 193.46875 176.875 C 193.605469 176.324219 192.972656 175.273438 195.179688 176.175781 C 195.191406 176.554688 195.097656 176.941406 195.097656 177.265625 C 195.097656 178.25 195.433594 178.289062 194.667969 179.015625 C 194.425781 179.230469 194.480469 179.367188 194.140625 179.703125 C 194.183594 179.996094 194.238281 179.917969 194.222656 180.144531 C 194.195312 180.390625 194.117188 180.335938 194.074219 180.628906 C 194.464844 181.128906 195.273438 181.546875 195.164062 182.324219 C 194.679688 182.582031 194.585938 182.191406 193.925781 182.125 C 193.792969 182.664062 193.847656 182.527344 193.226562 182.609375 C 192.835938 182.664062 192.460938 182.460938 192.40625 182.152344 C 192.3125 181.695312 192.742188 181.667969 192.742188 181.261719 C 192.742188 180.953125 192.703125 180.777344 192.527344 180.644531 C 192.136719 181.019531 192.835938 181.261719 191.4375 182.207031 C 190.226562 183.027344 191.046875 183.335938 190.214844 183.644531 C 189.257812 184.007812 189.824219 183.875 189.082031 185.191406 C 188.707031 185.878906 188.382812 186.296875 188.839844 187.226562 C 189.296875 187.480469 189.21875 187.0625 189.378906 187.695312 C 189.539062 188.394531 189.675781 188.558594 190.347656 188.773438 " fill-opacity="1" fill-rule="evenodd"/></g><g clip-path="url(#dc8c22cec3)"><path fill="#72bd2d" d="M 287.65625 214 C 287.65625 214.003906 285.929688 217.507812 278.242188 219.78125 C 278.378906 224.1875 274.585938 230.535156 268.285156 235.730469 C 266.308594 237.363281 264.265625 238.726562 262.265625 239.804688 C 263.074219 239.921875 263.882812 240.015625 264.691406 240.058594 C 268.132812 240.246094 271.617188 239.828125 274.75 238.316406 C 279.699219 235.921875 283.515625 231.472656 285.476562 226.363281 C 286.53125 223.609375 287.175781 220.699219 287.480469 217.769531 C 287.578125 216.851562 287.640625 215.929688 287.65625 215.007812 C 287.664062 214.773438 287.550781 214.214844 287.65625 214 " fill-opacity="1" fill-rule="nonzero"/></g><g clip-path="url(#f55571f602)"><path fill="#80cc28" d="M 278.242188 219.78125 C 275.808594 220.5 272.78125 221.09375 269.015625 221.417969 C 253.355469 222.757812 249.488281 240.0625 249.488281 240.0625 C 249.488281 240.0625 256.832031 226.097656 272.753906 227.234375 C 272.753906 227.234375 260.078125 228.542969 252.125 239.25 C 252.820312 239.105469 253.523438 239.011719 254.230469 238.964844 C 256.917969 238.796875 259.589844 239.421875 262.265625 239.804688 C 264.265625 238.726562 266.308594 237.363281 268.285156 235.730469 C 274.585938 230.535156 278.378906 224.1875 278.242188 219.78125 " fill-opacity="1" fill-rule="nonzero"/></g></svg>