<?xml version="1.0" standalone="no"?>
<!DOCTYPE svg PUBLIC "-//W3C//DTD SVG 20010904//EN"
 "http://www.w3.org/TR/2001/REC-SVG-20010904/DTD/svg10.dtd">
<svg version="1.0" xmlns="http://www.w3.org/2000/svg"
 width="50.000000pt" height="50.000000pt" viewBox="0 0 50.000000 50.000000"
 preserveAspectRatio="xMidYMid meet">

<g transform="translate(0.000000,50.000000) scale(0.100000,-0.100000)"
fill="#000000" stroke="none">
<path d="M207 482 c-14 -15 -17 -41 -17 -137 0 -116 -1 -120 -27 -148 -23 -23
-28 -37 -28 -77 0 -43 5 -54 33 -82 47 -48 117 -48 164 0 28 28 33 39 33 82 0
40 -5 54 -29 79 -28 30 -29 31 -8 31 12 0 22 5 22 10 0 6 -9 10 -20 10 -11 0
-20 5 -20 10 0 6 9 10 20 10 11 0 20 5 20 10 0 6 -9 10 -20 10 -11 0 -20 5
-20 10 0 6 9 10 20 10 11 0 20 5 20 10 0 6 -9 10 -20 10 -11 0 -20 5 -20 10 0
6 9 10 20 10 11 0 20 5 20 10 0 6 -9 10 -20 10 -11 0 -20 5 -20 10 0 6 9 10
20 10 11 0 20 5 20 10 0 6 -9 10 -20 10 -15 0 -20 7 -20 28 0 55 -68 83 -103
44z m67 -8 c10 -4 16 -18 16 -35 0 -27 -3 -29 -40 -29 -38 0 -40 2 -40 29 0
36 26 50 64 35z m16 -170 c0 -79 2 -89 25 -110 59 -54 36 -151 -40 -170 -101
-25 -167 99 -90 170 23 21 25 31 25 110 l0 86 40 0 40 0 0 -86z"/>
</g>
</svg>
