<?xml version="1.0" standalone="no"?>
<!DOCTYPE svg PUBLIC "-//W3C//DTD SVG 20010904//EN"
 "http://www.w3.org/TR/2001/REC-SVG-20010904/DTD/svg10.dtd">
<svg version="1.0" xmlns="http://www.w3.org/2000/svg"
 width="50.000000pt" height="50.000000pt" viewBox="0 0 50.000000 50.000000"
 preserveAspectRatio="xMidYMid meet">

<g transform="translate(0.000000,50.000000) scale(0.100000,-0.100000)"
fill="#000000" stroke="none">
<path d="M109 441 c-13 -11 -21 -23 -17 -27 5 -4 16 0 26 9 36 33 92 8 92 -40
0 -38 -31 -53 -108 -53 -41 0 -72 -4 -72 -10 0 -6 32 -10 75 -10 67 0 79 3
100 25 32 31 32 69 0 100 -29 30 -64 32 -96 6z"/>
<path d="M323 396 c-35 -30 -24 -46 13 -17 35 27 65 27 92 -2 29 -30 28 -62
-3 -92 -24 -25 -26 -25 -210 -25 -117 0 -185 -4 -185 -10 0 -6 70 -10 191 -10
l191 0 29 29 c20 20 29 39 29 61 0 22 -9 41 -29 61 -37 36 -79 38 -118 5z"/>
<path d="M30 180 c0 -6 48 -10 123 -10 107 0 126 -2 140 -18 22 -24 21 -55 -1
-75 -24 -22 -50 -22 -74 0 -10 9 -21 13 -26 9 -11 -12 37 -46 65 -46 32 0 73
42 73 75 0 14 -11 37 -25 50 -23 24 -30 25 -150 25 -77 0 -125 -4 -125 -10z"/>
</g>
</svg>
